<?xml version="1.0" encoding="UTF-8"?>
<svg version="1.1" xmlns="http://www.w3.org/2000/svg" width="1073" height="278">
<path d="M0 0 C354.09 0 708.18 0 1073 0 C1073 91.74 1073 183.48 1073 278 C718.91 278 364.82 278 0 278 C0 186.26 0 94.52 0 0 Z " fill="#FDFDFD" transform="translate(0,0)"/>
<path d="M0 0 C0.91652344 -0.01546875 1.83304688 -0.0309375 2.77734375 -0.046875 C11.41500056 2.04834734 19.0828363 8.7015022 26.3125 13.6875 C28.24078619 15.0105613 30.16917469 16.33347349 32.09765625 17.65625 C33.07879395 18.33042969 34.05993164 19.00460938 35.07080078 19.69921875 C39.00545131 22.39638412 42.9532754 25.07391435 46.90112305 27.75170898 C50.53027658 30.21769222 54.1500706 32.69714874 57.76757812 35.18017578 C59.71852293 36.51470505 61.67773888 37.83550719 63.640625 39.15234375 C73.78355676 46.14985814 79.02179312 54.15756005 83.0625 65.75 C83.40780762 66.70793457 83.75311523 67.66586914 84.10888672 68.65283203 C85.6364499 74.09335247 85.36770865 79.68958222 85.36328125 85.296875 C85.36756638 86.50386047 85.3718515 87.71084595 85.37626648 88.95440674 C85.38199647 91.50280125 85.38251988 94.05121212 85.37817383 96.59960938 C85.37502202 100.4729446 85.39846293 104.34550952 85.42382812 108.21875 C85.42610224 110.70312404 85.42680409 113.18750013 85.42578125 115.671875 C85.434991 116.81807312 85.44420074 117.96427124 85.45368958 119.14520264 C85.37252524 133.44928546 80.98679951 146.82037203 71.0625 157.4375 C65.64827036 162.45202141 59.49030064 166.34684404 53.29638672 170.30761719 C50.01392414 172.42704767 46.77296764 174.60708854 43.52807617 176.78344727 C35.38718145 182.24242397 27.20971335 187.64511861 19 193 C18.16122314 193.54889893 17.32244629 194.09779785 16.45825195 194.66333008 C15.67667725 195.1714624 14.89510254 195.67959473 14.08984375 196.203125 C13.40656006 196.64817383 12.72327637 197.09322266 12.01928711 197.55175781 C5.79373805 201.36398424 0.30728161 201.50597721 -6.9375 200.75 C-10.29922418 199.43265152 -12.39632629 197.29117371 -14.9375 194.75 C-15.1501279 192.26856684 -15.23749234 189.89661598 -15.23857117 187.41265869 C-15.24663011 186.64747539 -15.25468905 185.88229209 -15.2629922 185.09392142 C-15.28746498 182.51604655 -15.29744882 179.93832063 -15.30737305 177.36035156 C-15.32153502 175.51759267 -15.3364505 173.67483943 -15.35206604 171.83209229 C-15.39937241 165.76831771 -15.42500029 159.70452864 -15.44921875 153.640625 C-15.4586242 151.55496939 -15.4681186 149.46931417 -15.47770119 147.38365936 C-15.51620529 138.70917265 -15.54941896 130.03469577 -15.56807232 121.36014175 C-15.59488741 108.91906344 -15.6524504 96.47902455 -15.75383729 84.03832269 C-15.82265272 75.29600643 -15.85703206 66.55396677 -15.86563712 57.81138587 C-15.87164722 52.58716505 -15.89269336 47.36401257 -15.95020103 42.14008331 C-16.00349202 37.22472565 -16.01413784 32.31110985 -15.99205589 27.3955307 C-15.99133855 25.59192225 -16.0060224 23.78823176 -16.03726578 21.9848938 C-16.26014773 8.36966724 -16.26014773 8.36966724 -12.97405434 4.34563446 C-8.94058799 1.55361676 -4.96664427 -0.08359009 0 0 Z " fill="#F9786B" transform="translate(14.9375,35.25)"/>
<path d="M0 0 C1.47914409 -0.00712113 2.95828548 -0.01482289 4.43742371 -0.02307129 C7.52452283 -0.03644541 10.61136653 -0.03811737 13.69848633 -0.03222656 C17.61868034 -0.02634145 21.53763119 -0.05690431 25.45758533 -0.09734344 C28.50947965 -0.12342849 31.56108296 -0.1260792 34.61307335 -0.12245178 C36.05651658 -0.12412413 37.4999761 -0.13358086 38.94330788 -0.15159607 C52.37084954 -0.30076647 63.32526404 2.29407263 73.140625 11.88671875 C73.95402344 12.73878906 74.76742187 13.59085938 75.60546875 14.46875 C76.51167969 15.41363281 77.41789063 16.35851562 78.3515625 17.33203125 C83.63434328 22.93856579 88.57005794 28.78621224 93.3984375 34.7890625 C96.39738954 38.43026798 99.56373659 41.90489283 102.7578125 45.375 C106.96296227 50.14024372 107.0264395 53.35680299 106.9296875 59.51171875 C106.47398568 63.66793894 105.41634013 65.41694679 102.60546875 68.46875 C99.00533693 70.86883788 96.41287231 70.7570941 92.2550354 70.74290466 C91.50054277 70.74814134 90.74605014 70.75337802 89.96869409 70.75877339 C87.43301501 70.77381071 84.89753706 70.77447935 82.36181641 70.77514648 C80.54684609 70.78276545 78.731879 70.79119249 76.91691589 70.80036926 C71.98095864 70.82234666 67.04506334 70.83111747 62.10906267 70.83619571 C59.02665372 70.83983534 55.9442611 70.84607333 52.86185837 70.8531971 C42.11232538 70.87770249 31.36284074 70.89074593 20.61328125 70.89428711 C10.58675983 70.89792362 0.56054429 70.92782451 -9.46588361 70.96969169 C-18.06893415 71.00435839 -26.67188314 71.01983492 -35.27500308 71.02053314 C-40.41557356 71.02132717 -45.55583258 71.03012352 -50.69633102 71.05853081 C-55.53093362 71.08464955 -60.36496518 71.0869514 -65.19960594 71.07087517 C-66.97455907 71.06905575 -68.74954456 71.07579572 -70.52442741 71.09169388 C-72.94700862 71.11207165 -75.36757618 71.10165371 -77.79013062 71.08348083 C-78.49334548 71.0966808 -79.19656035 71.10988077 -79.92108476 71.12348074 C-83.78313173 71.05726028 -85.28416684 70.56125831 -88.28777504 68.04361057 C-91.78433174 63.77014697 -92.82653528 61.1788708 -92.63671875 55.484375 C-91.94073516 49.69199545 -88.7214625 46.6596291 -84.50610352 43.12353516 C-80.62883593 40.08501975 -76.51466388 37.41346236 -72.39453125 34.71875 C-70.51691251 33.47918873 -68.63930842 32.23960529 -66.76171875 31 C-65.38838379 30.09701172 -65.38838379 30.09701172 -63.98730469 29.17578125 C-60.4879202 26.87185504 -57.00296768 24.54668443 -53.51953125 22.21875 C-52.33603724 21.42953792 -51.15244434 20.6404741 -49.96875 19.8515625 C-49.38915527 19.46516602 -48.80956055 19.07876953 -48.21240234 18.68066406 C-34.734375 9.6953125 -34.734375 9.6953125 -33.01513672 8.56347656 C-31.50641692 7.54432929 -30.04370169 6.45797628 -28.5859375 5.3671875 C-19.60583565 0.02529093 -10.2081542 -0.00603777 0 0 Z " fill="#624CF5" transform="translate(119.39453125,207.53125)"/>
<path d="M0 0 C2.63786731 -0.2944427 5.04130439 -0.39124818 7.681427 -0.36076355 C8.88455467 -0.36460846 8.88455467 -0.36460846 10.11198795 -0.36853105 C12.81460566 -0.37349437 15.51667156 -0.35693439 18.21923828 -0.34057617 C20.15054308 -0.33973045 22.08184884 -0.34020397 24.01315308 -0.34190369 C29.26914918 -0.3427672 34.52494142 -0.32508388 39.78088999 -0.30418181 C45.26886376 -0.28547427 50.75684179 -0.28366926 56.24484253 -0.28010559 C66.64294918 -0.27076767 77.04096162 -0.2461303 87.43902671 -0.21605712 C99.27438484 -0.18256739 111.10974739 -0.16604078 122.94514108 -0.15097082 C147.29681302 -0.11958224 171.64840124 -0.06678786 196 0 C198.14735437 4.29470873 197.66399649 9.35779843 197 14 C195.26669861 17.55234913 192.69494951 20.13633866 190 23 C189.02706914 24.11633876 188.0600439 25.23784059 187.09765625 26.36328125 C184.90821952 28.92365421 182.70412509 31.4697628 180.484375 34.00390625 C178.14119791 36.68248186 175.82002004 39.37783778 173.515625 42.08984375 C172.94730957 42.7554834 172.37899414 43.42112305 171.79345703 44.10693359 C170.71743874 45.36811395 169.64520165 46.63253496 168.57763672 47.90087891 C163.72825915 53.56084242 158.61147772 58.58055352 151.8125 61.8125 C150.99394531 62.21082031 150.17539063 62.60914063 149.33203125 63.01953125 C144.97284912 64.85228622 141.21130893 65.13704061 136.47827148 65.17700195 C135.8321138 65.18357315 135.18595612 65.19014435 134.5202179 65.19691467 C132.38717513 65.21657988 130.25420277 65.2282989 128.12109375 65.23828125 C127.02186931 65.24439454 127.02186931 65.24439454 125.90043831 65.25063133 C122.0168804 65.27146947 118.13335752 65.2857774 114.24975586 65.29516602 C110.26441401 65.30618838 106.27963697 65.34054554 102.29449368 65.38033772 C99.20841024 65.40665903 96.12245782 65.41487177 93.03627205 65.41844749 C91.56884028 65.42327844 90.10141297 65.43479109 88.63409233 65.45348549 C76.59439937 65.59726707 66.88789969 63.63356543 57 56.5625 C56.38318359 56.13710938 55.76636719 55.71171875 55.13085938 55.2734375 C53.79348453 54.3501065 52.4595878 53.42172088 51.12890625 52.48876953 C48.07988619 50.35655344 45.00616505 48.26103041 41.93383789 46.16259766 C40.3096218 45.05306695 38.68641288 43.94206043 37.06420898 42.82958984 C32.0854152 39.41564622 27.08795643 36.03235487 22.0625 32.6875 C21.45946045 32.2850708 20.8564209 31.8826416 20.23510742 31.46801758 C17.35355612 29.54895731 14.46183446 27.64921718 11.546875 25.78125 C10.47953125 25.0903125 9.4121875 24.399375 8.3125 23.6875 C7.38050781 23.09324219 6.44851562 22.49898437 5.48828125 21.88671875 C2.22928485 19.41561159 -0.16764963 16.66470073 -2 13 C-2.12114921 11.35744209 -2.17540767 9.70947522 -2.1875 8.0625 C-2.20167969 7.18722656 -2.21585938 6.31195312 -2.23046875 5.41015625 C-2 3 -2 3 0 0 Z " fill="#624CF5" transform="translate(29,0)"/>
<path d="M0 0 C5.47682248 3.18651489 10.04899859 8.04622332 12.4375 14 C12.4375 15.32 12.4375 16.64 12.4375 18 C13.0975 18 13.7575 18 14.4375 18 C14.4375 12.72 14.4375 7.44 14.4375 2 C20.7075 2 26.9775 2 33.4375 2 C33.4375 45.23 33.4375 88.46 33.4375 133 C27.1675 133 20.8975 133 14.4375 133 C14.1075 127.72 13.7775 122.44 13.4375 117 C12.509375 118.918125 11.58125 120.83625 10.625 122.8125 C7.23721591 129.81392045 7.23721591 129.81392045 4.4375 132 C3.7775 132 3.1175 132 2.4375 132 C2.4375 132.66 2.4375 133.32 2.4375 134 C-2.02446929 136.30295189 -6.63679524 136.78440161 -11.5625 136 C-19.39549577 132.28326167 -24.54295703 123.40377298 -27.6953125 115.55078125 C-33.29850558 99.06931692 -34.73526538 82.98570058 -34.75 65.6875 C-34.75108765 64.99608917 -34.75217529 64.30467834 -34.7532959 63.59231567 C-34.74966125 43.15804558 -33.10672182 19.88382119 -18.5625 4 C-12.55288783 -1.3267017 -7.70226334 -2.16203883 0 0 Z " fill="#020202" transform="translate(513.5625,74)"/>
<path d="M0 0 C3.14581423 -0.02888514 6.29159469 -0.04675923 9.4375 -0.0625 C10.33533203 -0.07087891 11.23316406 -0.07925781 12.15820312 -0.08789062 C13.01220703 -0.09111328 13.86621094 -0.09433594 14.74609375 -0.09765625 C15.93223267 -0.10551147 15.93223267 -0.10551147 17.14233398 -0.11352539 C19 0 19 0 20 1 C20.22394236 2.42226623 20.38721441 3.85416356 20.52490234 5.28735352 C20.66057114 6.66549225 20.66057114 6.66549225 20.79898071 8.07147217 C20.94102432 9.58490204 20.94102432 9.58490204 21.0859375 11.12890625 C21.18748138 12.17403381 21.28902527 13.21916138 21.39364624 14.29595947 C21.72499976 17.71774591 22.05001163 21.14010368 22.375 24.5625 C22.60021001 26.89871791 22.8257966 29.23489955 23.05175781 31.57104492 C24.03963189 41.81128451 25.00947057 52.05318978 25.9609375 62.296875 C26.0305368 63.04513046 26.10013611 63.79338593 26.17184448 64.5643158 C26.48495641 67.93584761 26.79469363 71.30759921 27.09912109 74.67993164 C27.20562988 75.84387451 27.31213867 77.00781738 27.421875 78.20703125 C27.51049805 79.1916333 27.59912109 80.17623535 27.69042969 81.19067383 C28.01665778 84.15116805 28.48426257 87.06708267 29 90 C30.17806582 82.43030045 31.15012864 74.87427815 31.875 67.25 C34.03158578 44.77422807 36.85123121 22.3562584 40 0 C46.93 0 53.86 0 61 0 C61.53529729 4.06670028 62.06898364 8.13355874 62.59912109 12.20092773 C62.77861055 13.57473685 62.95890619 14.94844096 63.14013672 16.32202148 C64.2907826 25.04828842 65.31309869 33.77842443 66.2131958 42.53408813 C67.2378331 52.43173589 68.43699964 62.3083843 69.625 72.1875 C69.85689396 74.12433422 70.08866536 76.06118312 70.3203125 77.99804688 C70.87880305 82.66553411 71.43892558 87.3328227 72 92 C72.6558754 85.1997102 73.31113719 78.39936144 73.96594238 71.59896851 C74.19642504 69.20542766 74.42697484 66.81189329 74.65759277 64.41836548 C76.33178055 47.04511718 76.33178055 47.04511718 77.96484375 29.66796875 C78.03419632 28.92112823 78.10354889 28.17428772 78.17500305 27.40481567 C78.48555883 24.05591251 78.79378371 20.70682904 79.09887695 17.35742188 C80.56771063 1.43228937 80.56771063 1.43228937 82 0 C83.34267413 -0.08631874 84.68974322 -0.10706473 86.03515625 -0.09765625 C86.84404297 -0.09443359 87.65292969 -0.09121094 88.48632812 -0.08789062 C89.33646484 -0.07951172 90.18660156 -0.07113281 91.0625 -0.0625 C91.91650391 -0.05798828 92.77050781 -0.05347656 93.65039062 -0.04882812 C95.76695663 -0.03700373 97.88348685 -0.01906769 100 0 C99.21093192 10.9929298 97.60087078 21.89626941 96.125 32.8125 C95.86567738 34.74411271 95.60656156 36.67575319 95.34765625 38.60742188 C94.31646824 46.2902692 93.27915518 53.97225355 92.22583008 61.65209961 C90.56811319 73.73978124 88.97482545 85.83393926 87.4375 97.9375 C86.7243437 103.54166011 86.00885949 109.14550891 85.28826904 114.74871826 C85.00196807 116.98463005 84.71994027 119.22105578 84.43798828 121.45751953 C84.262258 122.82717588 84.08632505 124.19680624 83.91015625 125.56640625 C83.75812744 126.76338135 83.60609863 127.96035645 83.44946289 129.19360352 C83 132 83 132 82 134 C74.74 134 67.48 134 60 134 C59.81824219 132.329375 59.63648438 130.65875 59.44921875 128.9375 C57.89602827 114.75406117 56.23755431 100.58986221 54.43554688 86.43603516 C53.64428369 80.19374923 52.86708001 73.94970086 52.08786011 67.7059021 C51.64888599 64.18929279 51.2091894 60.67277384 50.76953125 57.15625 C50.51302083 55.10416667 50.25651042 53.05208333 50 51 C49.80422363 52.57406616 49.80422363 52.57406616 49.60449219 54.17993164 C48.98720105 59.14089666 48.36869453 64.10170983 47.75 69.0625 C47.63773071 69.96326263 47.52546143 70.86402527 47.40979004 71.79208374 C46.22978712 81.2545082 45.04493197 90.71611713 43.8125 100.171875 C43.7212384 100.87295883 43.62997681 101.57404266 43.53594971 102.29637146 C43.11271452 105.54378801 42.68667343 108.79080371 42.25683594 112.03735352 C41.43105497 118.34511038 40.72348081 124.63217792 40.25488281 130.97729492 C40 133 40 133 39 134 C37.36527118 134.08700342 35.72685945 134.10701063 34.08984375 134.09765625 C33.10048828 134.09443359 32.11113281 134.09121094 31.09179688 134.08789062 C30.05087891 134.07951172 29.00996094 134.07113281 27.9375 134.0625 C26.89271484 134.05798828 25.84792969 134.05347656 24.77148438 134.04882812 C22.1809334 134.03699913 19.59049441 134.02051689 17 134 C16.92562714 133.4211908 16.85125427 132.84238159 16.77462769 132.24603271 C13.53291164 107.02817947 10.28046998 81.81287619 6.8125 56.625 C5.01981378 43.59108206 3.26662324 30.55388526 1.625 17.5 C1.49649155 16.48718964 1.49649155 16.48718964 1.36538696 15.45391846 C1.12878106 13.58421839 0.89630799 11.7139967 0.6640625 9.84375 C0.53467285 8.80412109 0.4052832 7.76449219 0.27197266 6.69335938 C0 4 0 4 0 0 Z " fill="#050405" transform="translate(375,74)"/>
<path d="M0 0 C7.59 0 15.18 0 23 0 C24.6641365 4.16034124 25.55433588 7.41309443 26.296875 11.765625 C26.41090668 12.42339432 26.52493835 13.08116364 26.64242554 13.75886536 C27.01649425 15.92176841 27.38316245 18.08585989 27.75 20.25 C28.28160833 23.33762877 28.81683137 26.4246295 29.3515625 29.51171875 C29.48750824 30.29989487 29.62345398 31.08807098 29.76351929 31.90013123 C31.03831802 39.27425961 32.38703084 46.6340135 33.74383545 53.9934082 C35.82446809 65.28779513 37.81802346 76.58833857 39.53173828 87.94555664 C40.63859085 95.15839345 41.99516095 102.31401942 43.37350464 109.47869873 C45.23077517 119.15093499 46.98911373 128.84002312 48.71972656 138.53564453 C49.07842979 140.54088144 49.43916349 142.54575601 49.80175781 144.55029297 C50.33558996 147.50154083 50.86377591 150.45374857 51.390625 153.40625 C51.63428802 154.74520325 51.63428802 154.74520325 51.88287354 156.11120605 C52.03012878 156.94398071 52.17738403 157.77675537 52.32910156 158.63476562 C52.45915588 159.35974243 52.58921021 160.08471924 52.72320557 160.83166504 C53 163 53 163 53 168 C46.07 168 39.14 168 32 168 C30.35 158.43 28.7 148.86 27 139 C17.1 139 7.2 139 -3 139 C-4.65 148.57 -6.3 158.14 -8 168 C-14.93 168 -21.86 168 -29 168 C-25.37906311 142.65344174 -21.24638043 117.2544666 -16 92.1875 C-13.66349963 81.01606876 -11.96405584 69.72784453 -10.19335938 58.45581055 C-8.88367592 50.16153173 -7.42276152 41.93160451 -5.73413086 33.70385742 C-4.44158245 27.18265628 -3.3845533 20.62288627 -2.3125 14.0625 C-2.08551979 12.68550839 -1.85830706 11.30855509 -1.63085938 9.93164062 C-1.0849711 6.62146705 -0.54215478 3.31078711 0 0 Z " fill="#040304" transform="translate(319,40)"/>
<path d="M0 0 C7.24815343 5.56253635 11.01359936 14.49418096 14.25 22.8125 C14.49613037 23.42714111 14.74226074 24.04178223 14.99584961 24.67504883 C19.26052208 36.17361862 19.27181413 48.21722455 19.125 60.3125 C19.08375 65.159375 19.0425 70.00625 19 75 C4.15 75 -10.7 75 -26 75 C-24.56844612 87.15442208 -24.56844612 87.15442208 -20 97 C-19.67 97.99 -19.34 98.98 -19 100 C-13.17329049 100.59052354 -13.17329049 100.59052354 -8.1875 97.9375 C-5.48234906 94.54303499 -5.48234906 94.54303499 -3 88 C3.93 88 10.86 88 18 88 C16.0333839 102.48144582 12.38638209 118.85077009 1 129 C0.34 129 -0.32 129 -1 129 C-1 129.66 -1 130.32 -1 131 C-6.94827656 134.17241416 -12.29332165 134.98855664 -19 134 C-27.86801262 130.88676153 -33.8024392 121.91284647 -37.75 113.8125 C-44.14733093 98.54075714 -46.38762644 82.3232706 -46.3125 65.875 C-46.30831055 64.61107422 -46.30412109 63.34714844 -46.29980469 62.04492188 C-46.05172423 41.32228661 -43.13739718 17.55788043 -28 2 C-27.34 2 -26.68 2 -26 2 C-26 1.34 -26 0.68 -26 0 C-17.46765987 -4.45165572 -8.66859947 -4.2479591 0 0 Z " fill="#040404" transform="translate(847,76)"/>
<path d="M0 0 C16.5 0 33 0 50 0 C50 10.89 50 21.78 50 33 C40.1 33 30.2 33 20 33 C20 44.22 20 55.44 20 67 C28.58 67 37.16 67 46 67 C46 77.56 46 88.12 46 99 C37.42 99 28.84 99 20 99 C20 111.21 20 123.42 20 136 C29.9 136 39.8 136 50 136 C50 146.56 50 157.12 50 168 C33.5 168 17 168 0 168 C0 112.56 0 57.12 0 0 Z " fill="#040405" transform="translate(669,40)"/>
<path d="M0 0 C9.73964737 5.1562839 14.29233272 13.50774272 17.6875 23.625 C21.41044005 37.59711119 21.27541282 51.9107369 21.1953125 66.25 C21.19157214 68.24495297 21.18873002 70.2399078 21.18673706 72.23486328 C21.17918101 77.42970042 21.15960368 82.62442178 21.1373291 87.81921387 C21.11669549 93.14248082 21.10769828 98.46576689 21.09765625 103.7890625 C21.07634841 114.19276681 21.04123396 124.59635557 21 135 C14.4 135 7.8 135 1 135 C0.970271 131.24592773 0.970271 131.24592773 0.93994141 127.41601562 C0.87291468 119.12984722 0.79527704 110.84380241 0.71247292 102.5577774 C0.66261234 97.53594199 0.61628159 92.51412657 0.578125 87.4921875 C0.54114263 82.64212084 0.49474796 77.79222574 0.44193649 72.94230652 C0.42346121 71.09566774 0.40832814 69.24899228 0.39665604 67.40229797 C0.37967557 64.80773501 0.35061312 62.21355909 0.31884766 59.61914062 C0.31668747 58.8624408 0.31452728 58.10574097 0.31230164 57.32611084 C0.18987593 49.4544196 -1.13941605 40.74278327 -7 35 C-9.90645852 33.92919949 -12.07442392 34.02678605 -15 35 C-20.44842019 39.60088816 -22.54173393 45.95039403 -23.17986679 52.98194122 C-23.49764958 58.76726279 -23.49197351 64.55915018 -23.51171875 70.3515625 C-23.52858732 72.22058272 -23.54674046 74.08959174 -23.56611633 75.95858765 C-23.61338606 80.847641 -23.64334384 85.73664895 -23.66955566 90.62585449 C-23.69947804 95.62696292 -23.74596795 100.62791524 -23.79101562 105.62890625 C-23.87678656 115.41920662 -23.9427141 125.20949148 -24 135 C-30.6 135 -37.2 135 -44 135 C-44 90.78 -44 46.56 -44 1 C-37.4 1 -30.8 1 -24 1 C-23.67 5.95 -23.34 10.9 -23 16 C-22.505 14.824375 -22.01 13.64875 -21.5 12.4375 C-19.04654428 7.49541357 -15.47199149 4.16804325 -11 1 C-7.27251673 -0.24249442 -3.87180664 -0.52998114 0 0 Z " fill="#050404" transform="translate(921,73)"/>
<path d="M0 0 C7.77189418 6.34440341 11.03688634 16.2138143 13.3125 25.625 C13.56990967 26.68146729 13.56990967 26.68146729 13.83251953 27.75927734 C14.96170593 32.80470353 15 36.52207415 15 42 C9.06 42 3.12 42 -3 42 C-3.66 39.69 -4.32 37.38 -5 35 C-6.41057055 30.73980485 -6.41057055 30.73980485 -10 28 C-13.54199641 27.58326793 -13.54199641 27.58326793 -17 28 C-19.9744974 32.4617461 -19.49796388 36.76754876 -19 42 C-17.65344741 45.29905386 -16.83535493 46.49878704 -13.8125 48.3125 C-13.214375 48.539375 -12.61625 48.76625 -12 49 C-12 49.66 -12 50.32 -12 51 C-11.37351562 51.20496094 -10.74703125 51.40992188 -10.1015625 51.62109375 C-9.28429688 51.89050781 -8.46703125 52.15992188 -7.625 52.4375 C-6.81289062 52.70433594 -6.00078125 52.97117188 -5.1640625 53.24609375 C-3 54 -3 54 -1 55 C-1 55.66 -1 56.32 -1 57 C-0.24847656 57.25136719 0.50304688 57.50273437 1.27734375 57.76171875 C6.80720673 60.27673534 9.74588994 65.42210709 12.3359375 70.74609375 C17.65379406 85.24762459 16.62367462 103.68740942 10.828125 117.8671875 C8.81678301 122.15060099 6.84600424 126.08234161 3 129 C2.34 129 1.68 129 1 129 C1 129.66 1 130.32 1 131 C-5.85730246 134.57772302 -12.54902626 135.22039108 -20.0625 133.125 C-28.38127264 129.46137892 -33.21213876 121.56581603 -36.4375 113.4375 C-39.73194829 104.61355495 -41 97.58542315 -41 88 C-34.73 88 -28.46 88 -22 88 C-21.01 90.97 -20.02 93.94 -19 97 C-17.45493369 100.57264285 -17.45493369 100.57264285 -15 103 C-11.45704496 103.83345815 -11.45704496 103.83345815 -8 103 C-5.70522061 100.73709255 -5.04954023 99.32848297 -4.56640625 96.125 C-4.56511719 95.09375 -4.56382813 94.0625 -4.5625 93 C-4.54316406 91.96875 -4.52382812 90.9375 -4.50390625 89.875 C-5.11347722 86.34236826 -6.24635784 85.21522051 -9 83 C-9.66 82.67 -10.32 82.34 -11 82 C-11 81.34 -11 80.68 -11 80 C-11.62648438 79.79503906 -12.25296875 79.59007812 -12.8984375 79.37890625 C-13.71570312 79.10949219 -14.53296875 78.84007812 -15.375 78.5625 C-16.18710938 78.29566406 -16.99921875 78.02882813 -17.8359375 77.75390625 C-20 77 -20 77 -22 76 C-22 75.34 -22 74.68 -22 74 C-22.721875 73.773125 -23.44375 73.54625 -24.1875 73.3125 C-31.15388212 70.06152168 -34.2939963 63.87364443 -37 57 C-41.52147324 41.8973471 -40.24516784 23.01635274 -33 9 C-29.67517804 3.54323114 -26.4267773 -0.84407753 -20.09765625 -2.63671875 C-13.08935524 -3.85044686 -6.36927398 -3.37126033 0 0 Z " fill="#060506" transform="translate(1041,76)"/>
<path d="M0 0 C6.93 0 13.86 0 21 0 C22.23298723 5.54844252 23.36642514 10.8786506 24.21875 16.46484375 C24.32156784 17.13640503 24.42438568 17.80796631 24.53031921 18.49987793 C24.85719813 20.64521735 25.17894257 22.79128229 25.5 24.9375 C25.61082916 25.67066437 25.72165833 26.40382874 25.83584595 27.15921021 C27.29663822 36.83406741 28.63349324 46.50171325 29.54296875 56.24609375 C30.00057922 60.00475749 30.71223587 63.63510149 31.48071289 67.33911133 C32.37240177 71.90823077 32.99038847 76.51435296 33.625 81.125 C33.82609375 82.55972656 33.82609375 82.55972656 34.03125 84.0234375 C34.35677388 86.34860807 34.67965269 88.67411161 35 91 C37.27443996 78.60288007 39.16756351 66.18487324 40.87768555 53.69873047 C42.91301977 38.89257908 42.91301977 38.89257908 44.57788086 31.95996094 C45.34775075 28.38534238 45.65170053 24.76054906 46 21.125 C47.97824642 2.02175358 47.97824642 2.02175358 50 0 C51.4887186 -0.08669432 52.981445 -0.10703494 54.47265625 -0.09765625 C55.37177734 -0.09443359 56.27089844 -0.09121094 57.19726562 -0.08789062 C58.61555664 -0.07532227 58.61555664 -0.07532227 60.0625 -0.0625 C61.01189453 -0.05798828 61.96128906 -0.05347656 62.93945312 -0.04882812 C65.29303065 -0.0370011 67.64648477 -0.02052025 70 0 C70.17360609 5.88925272 69.57502124 11.12124432 68.375 16.875 C68.00554664 18.73262371 67.63853872 20.59073476 67.2734375 22.44921875 C67.07073242 23.47966309 66.86802734 24.51010742 66.65917969 25.57177734 C65.37223907 32.26482183 64.18570842 38.97592888 63 45.6875 C62.87069092 46.41767334 62.74138184 47.14784668 62.6081543 47.90014648 C60.71707618 58.60367224 58.99970038 69.32360494 57.3984375 80.07470703 C56.31544945 87.23934988 54.99198084 94.3212847 53.50830078 101.41259766 C51.28173792 112.20557975 49.67248556 123.11002166 48 134 C43.85418113 134.02886751 39.70838784 134.04675327 35.5625 134.0625 C34.37849609 134.07087891 33.19449219 134.07925781 31.97460938 134.08789062 C30.84990234 134.09111328 29.72519531 134.09433594 28.56640625 134.09765625 C27.00321655 134.10551147 27.00321655 134.10551147 25.40844727 134.11352539 C23 134 23 134 22 133 C21.70131888 131.53969711 21.45824313 130.06796563 21.23828125 128.59375 C21.09197266 127.63919922 20.94566406 126.68464844 20.79492188 125.70117188 C20.55612305 124.1165918 20.55612305 124.1165918 20.3125 122.5 C18.70683964 112.13288724 16.9064415 101.81476233 15 91.5 C12.61994615 78.59522771 10.44810202 65.67017694 8.42480469 52.70410156 C7.7819451 48.6119678 7.11554481 44.52393868 6.4375 40.4375 C6.31810059 39.71715576 6.19870117 38.99681152 6.07568359 38.25463867 C5.2683348 33.44644032 4.366308 28.66098988 3.4375 23.875 C1.92183112 15.9456586 0.9308628 8.019741 0 0 Z " fill="#050405" transform="translate(726,74)"/>
<path d="M0 0 C6.6 0 13.2 0 20 0 C20 10.56 20 21.12 20 32 C24.29 32 28.58 32 33 32 C33 43.22 33 54.44 33 66 C28.71 66 24.42 66 20 66 C20.06298083 73.73689882 20.13844401 81.47348448 20.23571491 89.21002483 C20.28038946 92.80267265 20.31965162 96.39520784 20.34643555 99.98803711 C20.37249823 103.45715697 20.41292056 106.92584275 20.46318626 110.39469337 C20.48792221 112.35821845 20.49789227 114.32191158 20.50764465 116.28556824 C20.53733589 118.08686943 20.53733589 118.08686943 20.56762695 119.92456055 C20.57873001 120.97935104 20.58983307 122.03414154 20.60127258 123.12089539 C21.08995013 126.64950595 21.54963301 128.37229887 24 131 C26.97 131.33 29.94 131.66 33 132 C33 143.22 33 154.44 33 166 C17 166 17 166 14 165 C14 164.34 14 163.68 14 163 C13.443125 162.814375 12.88625 162.62875 12.3125 162.4375 C6.57790416 158.87275124 4.41913278 153.13200088 2.67578125 146.91796875 C2.45277344 145.95503906 2.22976563 144.99210938 2 144 C1.83611282 143.36799179 1.67222565 142.73598358 1.50337219 142.08482361 C-0.35777077 134.14175701 -0.25476817 126.2523176 -0.1953125 118.1484375 C-0.19157442 116.638155 -0.18873121 115.12787004 -0.18673706 113.61758423 C-0.17916307 109.67536522 -0.1595695 105.73329759 -0.1373291 101.7911377 C-0.11673503 97.75531053 -0.10770657 93.7194585 -0.09765625 89.68359375 C-0.0763166 81.78899364 -0.04225766 73.89451574 0 66 C-2.64 66 -5.28 66 -8 66 C-8.02465288 61.31860746 -8.04283739 56.63725241 -8.05493164 51.95581055 C-8.05997157 50.36205386 -8.0668035 48.76830181 -8.07543945 47.17456055 C-8.08751999 44.88849747 -8.09323155 42.60249533 -8.09765625 40.31640625 C-8.10281754 39.59973282 -8.10797882 38.88305939 -8.11329651 38.14466858 C-8.11349263 36.42936328 -8.06192007 34.71418734 -8 33 C-7.505 32.505 -7.505 32.505 -7 32 C-4.69 32 -2.38 32 0 32 C0 21.44 0 10.88 0 0 Z " fill="#050404" transform="translate(959,42)"/>
<path d="M0 0 C6.27 0 12.54 0 19 0 C19 10.56 19 21.12 19 32 C23.29 32 27.58 32 32 32 C32 42.89 32 53.78 32 65 C26.06 65.495 26.06 65.495 20 66 C19.95476391 73.60627393 19.9180923 81.21249756 19.89637566 88.81887341 C19.88595124 92.35106096 19.8718167 95.88315148 19.84912109 99.4152832 C19.82317606 103.47868771 19.81351613 107.54199074 19.8046875 111.60546875 C19.79436493 112.8702153 19.78404236 114.13496185 19.77340698 115.43803406 C19.77325592 116.61888077 19.77310486 117.79972748 19.77294922 119.01635742 C19.76628738 120.57189583 19.76628738 120.57189583 19.75949097 122.15885925 C20.0139324 125.16458388 20.63763941 127.31587005 22 130 C24.97949852 131.63379316 24.97949852 131.63379316 33 132 C33 143.22 33 154.44 33 166 C17 166 17 166 14 165 C14 164.34 14 163.68 14 163 C13.443125 162.79375 12.88625 162.5875 12.3125 162.375 C5.58863637 158.37702703 3.92707035 152.59037633 1.796875 145.4140625 C-0.27461477 136.53915046 -0.21064869 127.62539828 -0.31640625 118.5625 C-0.33701094 117.07177195 -0.35800825 115.58104929 -0.37937927 114.09033203 C-0.43423734 110.1909423 -0.48380453 106.29150306 -0.53222656 102.39202881 C-0.5827086 98.40323548 -0.63825444 94.41451292 -0.69335938 90.42578125 C-0.80049647 82.61724764 -0.90203768 74.80865468 -1 67 C-3.31 66.67 -5.62 66.34 -8 66 C-8 54.78 -8 43.56 -8 32 C-5.36 32 -2.72 32 0 32 C0 21.44 0 10.88 0 0 Z " fill="#020102" transform="translate(600,42)"/>
<path d="M0 0 C0.99 0.556875 1.98 1.11375 3 1.6875 C10.65072709 7.58493546 15.54667587 14.58658451 18 24 C19.42775706 35.50331092 17.74088441 45.72991397 11.30859375 55.59375 C5.68099681 62.64293197 -1.61386292 67.24640815 -10.6015625 68.50390625 C-17.63780784 68.7374433 -23.27539049 68.22444979 -29 64 C-29.74894531 63.46375 -30.49789062 62.9275 -31.26953125 62.375 C-38.39988781 56.69909428 -42.14577515 49.56267454 -45 41 C-45.89366325 27.40459848 -44.81686462 16.66651386 -35.71484375 5.87109375 C-26.8050522 -3.85052391 -11.66346761 -6.66483863 0 0 Z " fill="#F8796C" transform="translate(158,104)"/>
<path d="M0 0 C6.6 0 13.2 0 20 0 C20 44.22 20 88.44 20 134 C13.4 134 6.8 134 0 134 C0 89.78 0 45.56 0 0 Z " fill="#050505" transform="translate(562,74)"/>
<path d="M0 0 C5.99753541 4.60275974 8.53952846 11.80552269 10 19 C10.22984583 23.55944597 10.18516753 28.12285537 10.1875 32.6875 C10.19974609 33.92951172 10.21199219 35.17152344 10.22460938 36.45117188 C10.25194817 53.64727257 10.25194817 53.64727257 5 61 C4.2265625 62.11375 4.2265625 62.11375 3.4375 63.25 C1.13159514 66.05718852 -0.08863288 66.01017099 -3.8125 66.4375 C-7.33394992 66.36108517 -7.88370105 66.09779684 -10.75 63.6875 C-17.10448734 54.6709977 -18.18036409 43.96641285 -18.1875 33.3125 C-18.19974609 32.36955078 -18.21199219 31.42660156 -18.22460938 30.45507812 C-18.24118509 22.41585685 -17.7726794 14.15582433 -13.625 7.0625 C-13.22539062 6.35222656 -12.82578125 5.64195313 -12.4140625 4.91015625 C-8.97692208 0.26716822 -5.73182267 -0.98824529 0 0 Z " fill="#FAFBFB" transform="translate(517,108)"/>
<path d="M0 0 C4.34366924 2.56671364 6.15475222 5.36614742 8 10 C8.47671416 13.42374066 8.52290154 16.79675304 8.5 20.25 C8.49577026 21.65245972 8.49577026 21.65245972 8.49145508 23.08325195 C8.33274525 29.83933461 7.50108676 35.66209147 3 41 C-0.76499581 43.5099972 -2.54293606 43.61476744 -7 43 C-13.00425945 37.95096364 -14.51402823 30.77983193 -15.28515625 23.1953125 C-15.53950909 15.38778622 -14.36979485 8.29138173 -9.75 1.875 C-6.16698185 -0.56796692 -4.25825689 -0.68436272 0 0 Z " fill="#070505" transform="translate(575,17)"/>
<path d="M0 0 C0.66 0.33 1.32 0.66 2 1 C2.57863797 3.64159983 3.0342448 6.21972965 3.42578125 8.890625 C3.68388701 10.54370115 3.94252981 12.19669353 4.20166016 13.84960938 C4.33284241 14.70353271 4.46402466 15.55745605 4.59918213 16.43725586 C5.22514485 20.43952825 5.91714589 24.42994822 6.60546875 28.421875 C6.86964843 29.97647629 7.13332034 31.53116396 7.39648438 33.0859375 C7.79549415 35.44284442 8.1960062 37.79944137 8.60131836 40.15527344 C9.0031366 42.49338454 9.39864522 44.8324898 9.79296875 47.171875 C9.91480026 47.87189636 10.03663177 48.57191772 10.16215515 49.29315186 C10.83543241 53.33005271 11 56.8466416 11 61 C4.4 61 -2.2 61 -9 61 C-8.30881474 53.33995712 -7.26229894 45.78325314 -6.0625 38.1875 C-5.89298828 37.10146484 -5.72347656 36.01542969 -5.54882812 34.89648438 C-5.20677389 32.70499619 -4.86367726 30.51367044 -4.51953125 28.32250977 C-3.98694454 24.91650765 -3.46330162 21.50921795 -2.94140625 18.1015625 C-2.27962888 13.79205008 -1.6001973 9.486884 -0.875 5.1875 C-0.62363281 3.69283203 -0.62363281 3.69283203 -0.3671875 2.16796875 C-0.24601562 1.45253906 -0.12484375 0.73710938 0 0 Z " fill="#F4F5F4" transform="translate(330,86)"/>
<path d="M0 0 C4.11316405 0.82263281 5.62441046 1.57029267 8.4375 4.6875 C12.75360583 11.48607192 12.4375 16.24104969 12.4375 24.6875 C4.1875 24.6875 -4.0625 24.6875 -12.5625 24.6875 C-12.5625 15.91095832 -11.48508416 8.46697419 -5.23828125 1.91015625 C-3.5625 0.6875 -3.5625 0.6875 0 0 Z " fill="#EFF0F0" transform="translate(833.5625,104.3125)"/>
<path d="M0 0 C6.18387909 6.18387909 6.18387909 6.18387909 6.3125 11.6875 C6.26250737 16.94297485 5.79992523 20.09737409 2 24 C-0.75 25.375 -0.75 25.375 -3 26 C-3 25.34 -3 24.68 -3 24 C-3.66 23.67 -4.32 23.34 -5 23 C-5 22.34 -5 21.68 -5 21 C-1.125 19 -1.125 19 0 19 C0 17.35 0 15.7 0 14 C-2.475 15.485 -2.475 15.485 -5 17 C-5.3125 14.8125 -5.3125 14.8125 -5 12 C-4.175 11.21625 -3.35 10.4325 -2.5 9.625 C0.39033171 7.14047481 0.39033171 7.14047481 0.3125 3.1875 C0.209375 2.135625 0.10625 1.08375 0 0 Z " fill="#634EF0" transform="translate(220,252)"/>
<path d="M0 0 C0 0.99 0 1.98 0 3 C-1.11375 3.2475 -2.2275 3.495 -3.375 3.75 C-7.04876124 4.58449544 -7.04876124 4.58449544 -8.25 7.0625 C-8.4975 7.701875 -8.745 8.34125 -9 9 C-9.99 9.33 -10.98 9.66 -12 10 C-12 15.28 -12 20.56 -12 26 C-14 25 -14 25 -15 22 C-15.36823488 16.38441811 -15.23891406 12.80613054 -12 8 C-3.90430622 0 -3.90430622 0 0 0 Z " fill="#715FE3" transform="translate(42,247)"/>
<path d="M0 0 C0.66 0 1.32 0 2 0 C1.67 0.99 1.34 1.98 1 3 C0.34 3 -0.32 3 -1 3 C-1.03738281 3.61488281 -1.07476562 4.22976562 -1.11328125 4.86328125 C-1.17902344 5.67152344 -1.24476562 6.47976562 -1.3125 7.3125 C-1.37050781 8.11300781 -1.42851563 8.91351563 -1.48828125 9.73828125 C-2.08206694 12.36272334 -2.95780294 13.30820672 -5 15 C-5.33 14.34 -5.66 13.68 -6 13 C-6.33 13.66 -6.66 14.32 -7 15 C-7.66 15 -8.32 15 -9 15 C-7.61772023 9.010121 -4.16125486 4.41642615 0 0 Z " fill="#F08377" transform="translate(124,108)"/>
<path d="M0 0 C1.32 0.33 2.64 0.66 4 1 C1.03 4.63 -1.94 8.26 -5 12 C-5.66 10.68 -6.32 9.36 -7 8 C-4.69 5.36 -2.38 2.72 0 0 Z " fill="#6855E8" transform="translate(199,40)"/>
<path d="M0 0 C0.99 0 1.98 0 3 0 C3 0.66 3 1.32 3 2 C2.01 2 1.02 2 0 2 C0.11347619 3.97986082 0.2410935 5.95891598 0.375 7.9375 C0.44460937 9.03964844 0.51421875 10.14179688 0.5859375 11.27734375 C0.72257812 12.17582031 0.85921875 13.07429687 1 14 C1.66 14.33 2.32 14.66 3 15 C4.04808041 16.97522846 5.0520411 18.97481509 6 21 C1.72316502 19.47255894 -0.00037651 16.99924698 -2 13 C-2.63727624 8.00282166 -2.83768574 4.25652862 0 0 Z " fill="#7B6BE2" transform="translate(29,0)"/>
<path d="M0 0 C-0.33 0.99 -0.66 1.98 -1 3 C-2.98 3.33 -4.96 3.66 -7 4 C-7.33 4.99 -7.66 5.98 -8 7 C-11.57941844 9.76591425 -14.48349806 11.46864683 -19 12 C-14.4459571 6.81781326 -7.11043163 0 0 0 Z " fill="#7969E1" transform="translate(97,211)"/>
<path d="M0 0 C1.90625 0.82421875 1.90625 0.82421875 4.59375 2.32421875 C2.65625 2.88671875 2.65625 2.88671875 0.59375 3.32421875 C0.26375 2.99421875 -0.06625 2.66421875 -0.40625 2.32421875 C-1.81952947 2.1680132 -3.2397959 2.07365702 -4.66015625 2.0078125 C-5.51416016 1.96591797 -6.36816406 1.92402344 -7.24804688 1.88085938 C-8.14587891 1.84154297 -9.04371094 1.80222656 -9.96875 1.76171875 C-10.87044922 1.71853516 -11.77214844 1.67535156 -12.70117188 1.63085938 C-14.93603485 1.52443733 -17.17101308 1.42241887 -19.40625 1.32421875 C-13.59919863 -1.81817245 -6.32818555 -1.77723393 0 0 Z " fill="#EC8C86" transform="translate(153.40625,101.67578125)"/>
<path d="M0 0 C0.33 0.66 0.66 1.32 1 2 C-0.40769635 3.79872312 -1.82651003 5.58874968 -3.25 7.375 C-4.03890625 8.37273438 -4.8278125 9.37046875 -5.640625 10.3984375 C-7.75596965 12.73092018 -9.10691236 13.89850333 -12 15 C-8.59008792 9.45889287 -4.38579957 4.79031507 0 0 Z " fill="#E2DCFD" transform="translate(207,36)"/>
<path d="M0 0 C3.65866294 4.32387438 5 8.34923902 5 14 C4.01 13.67 3.02 13.34 2 13 C1.7834375 11.453125 1.7834375 11.453125 1.5625 9.875 C1.08339543 6.57450187 0.56124917 3.28731659 0 0 Z " fill="#EF8176" transform="translate(93,91)"/>
<path d="M0 0 C8.13952903 -0.61046468 13.5737569 -0.2922002 20 5 C17.16032769 5 14.76264289 4.59732819 12 4 C12 3.34 12 2.68 12 2 C8.04 1.67 4.08 1.34 0 1 C0 0.67 0 0.34 0 0 Z " fill="#EB928A" transform="translate(9,36)"/>
<path d="M0 0 C3.1875 0.875 3.1875 0.875 6 2 C4.37660195 3.70884005 2.70680947 5.37446717 1 7 C0.34 7 -0.32 7 -1 7 C-1 6.34 -1 5.68 -1 5 C-1.66 4.67 -2.32 4.34 -3 4 C-3 3.34 -3 2.68 -3 2 C-2.01 1.34 -1.02 0.68 0 0 Z " fill="#6654E5" transform="translate(218,271)"/>
<path d="M0 0 C0 0.66 0 1.32 0 2 C-0.99 2 -1.98 2 -3 2 C-3.2475 2.5775 -3.495 3.155 -3.75 3.75 C-5.18299988 6.32939979 -6.78424676 8.06121592 -9 10 C-9.66 10 -10.32 10 -11 10 C-9.63088196 6.8510285 -8.1247864 4.9521513 -5.5 2.75 C-4.8915625 2.22921875 -4.283125 1.7084375 -3.65625 1.171875 C-2 0 -2 0 0 0 Z " fill="#413327" transform="translate(912,74)"/>
<path d="M0 0 C-1.57533086 0.86883706 -3.16064509 1.71959068 -4.75 2.5625 C-5.63171875 3.03816406 -6.5134375 3.51382813 -7.421875 4.00390625 C-10.20701188 5.07998186 -11.26980214 5.06528748 -14 4 C-11.61605071 0.72206973 -8.67917602 0.16979401 -4.9375 -0.765625 C-3 -1 -3 -1 0 0 Z " fill="#6B5ADE" transform="translate(186,59)"/>
<path d="M0 0 C0 2 0 2 -1.25 3.5 C-3.1352841 5.1159578 -4.66312749 6.15022818 -7 7 C-9.12890625 6.546875 -9.12890625 6.546875 -11 6 C-9.54550599 4.9944239 -8.08627557 3.99569565 -6.625 3 C-5.40683594 2.1646875 -5.40683594 2.1646875 -4.1640625 1.3125 C-2 0 -2 0 0 0 Z " fill="#FBDDD8" transform="translate(38,226)"/>
<path d="M0 0 C0.33 0 0.66 0 1 0 C1.25223399 6.05361582 0.83052473 11.20333836 -1 17 C-1.66 17.66 -2.32 18.32 -3 19 C-2.13329546 12.64416673 -1.06965872 6.32448699 0 0 Z " fill="#EB847D" transform="translate(98,158)"/>
<path d="M0 0 C0.66 0 1.32 0 2 0 C0.34908222 4.29238623 -2.73754566 6.8793915 -6 10 C-6.66 9.67 -7.32 9.34 -8 9 C-6.71520959 7.49410612 -5.42195918 5.99542625 -4.125 4.5 C-3.04605469 3.24703125 -3.04605469 3.24703125 -1.9453125 1.96875 C-1.30335938 1.3190625 -0.66140625 0.669375 0 0 Z " fill="#372A1E" transform="translate(498,75)"/>
<path d="M0 0 C0.99 0.33 1.98 0.66 3 1 C1.03681826 4.53372712 -1.04070881 7.24479785 -4 10 C-3.67 8.02 -3.34 6.04 -3 4 C-2.01 3.67 -1.02 3.34 0 3 C0 2.01 0 1.02 0 0 Z " fill="#6C5AE0" transform="translate(213,24)"/>
<path d="M0 0 C0 0.33 0 0.66 0 1 C-1.44632813 1.19916016 -1.44632813 1.19916016 -2.921875 1.40234375 C-4.81679687 1.66724609 -4.81679687 1.66724609 -6.75 1.9375 C-8.00296875 2.11152344 -9.2559375 2.28554687 -10.546875 2.46484375 C-13.09982593 2.86049338 -15.5186291 3.30446422 -18 4 C-17.67 3.01 -17.34 2.02 -17 1 C-11.33357449 -0.22517308 -5.76291482 -0.09228867 0 0 Z " fill="#FEE1DB" transform="translate(148,100)"/>
<path d="M0 0 C3.36720387 1.39332574 4.9859524 2.9789286 7 6 C5.02 6 3.04 6 1 6 C0 1.125 0 1.125 0 0 Z " fill="#F2F0FB" transform="translate(27,272)"/>
<path d="M0 0 C0.66 0.33 1.32 0.66 2 1 C2.05389087 2.95803507 2.09274217 4.91648909 2.125 6.875 C2.14820313 7.96554687 2.17140625 9.05609375 2.1953125 10.1796875 C2 13 2 13 0 15 C0.33 11.7 0.66 8.4 1 5 C0.34 5 -0.32 5 -1 5 C-0.67 3.35 -0.34 1.7 0 0 Z " fill="#6E5ADA" transform="translate(224,257)"/>
<path d="M0 0 C0.99 0.66 1.98 1.32 3 2 C0.03 4.475 0.03 4.475 -3 7 C-3.66 5.68 -4.32 4.36 -5 3 C-3.35 2.01 -1.7 1.02 0 0 Z " fill="#EE7F76" transform="translate(82,191)"/>
<path d="M0 0 C1.32 0.66 2.64 1.32 4 2 C-0.95 4.97 -0.95 4.97 -6 8 C-6 7.01 -6 6.02 -6 5 C-4.68 4.67 -3.36 4.34 -2 4 C-2 3.34 -2 2.68 -2 2 C-1.34 2 -0.68 2 0 2 C0 1.34 0 0.68 0 0 Z " fill="#ED847E" transform="translate(58,208)"/>
<path d="M0 0 C2.64 0.33 5.28 0.66 8 1 C8.33 2.32 8.66 3.64 9 5 C5.22454612 3.90931332 2.52956528 3.0916909 0 0 Z " fill="#7060E0" transform="translate(90,58)"/>
<path d="M0 0 C1.2065625 0.0309375 1.2065625 0.0309375 2.4375 0.0625 C0.79580472 2.08304804 -0.87161778 4.08293058 -2.5625 6.0625 C-2.8925 6.0625 -3.2225 6.0625 -3.5625 6.0625 C-3.605221 4.39638095 -3.60313832 2.72867115 -3.5625 1.0625 C-2.5625 0.0625 -2.5625 0.0625 0 0 Z " fill="#6C5BDF" transform="translate(190.5625,51.9375)"/>
<path d="M0 0 C0.33 1.32 0.66 2.64 1 4 C-0.21484375 5.703125 -0.21484375 5.703125 -1.9375 7.25 C-2.50339844 7.77078125 -3.06929687 8.2915625 -3.65234375 8.828125 C-4.09707031 9.21484375 -4.54179687 9.6015625 -5 10 C-5.66 9.67 -6.32 9.34 -7 9 C-4.69 6.03 -2.38 3.06 0 0 Z " fill="#E5E0FC" transform="translate(225,14)"/>
<path d="M0 0 C0 0.66 0 1.32 0 2 C-0.99 2 -1.98 2 -3 2 C-3.66 3.32 -4.32 4.64 -5 6 C-6.32 5.67 -7.64 5.34 -9 5 C-7.87926138 4.16094435 -6.75325453 3.32892169 -5.625 2.5 C-4.99851562 2.0359375 -4.37203125 1.571875 -3.7265625 1.09375 C-2 0 -2 0 0 0 Z " fill="#FCE1DA" transform="translate(47,220)"/>
<path d="M0 0 C0.66 0.33 1.32 0.66 2 1 C0.875 2.9375 0.875 2.9375 -1 5 C-4.1875 5.75 -4.1875 5.75 -7 6 C-4.74259377 3.66475218 -2.7194239 1.81294927 0 0 Z " fill="#FDE5DE" transform="translate(54,214)"/>
<path d="M0 0 C0 0.99 0 1.98 0 3 C-4.455 4.485 -4.455 4.485 -9 6 C-3.2 0 -3.2 0 0 0 Z " fill="#7968DF" transform="translate(42,247)"/>
<path d="M0 0 C0.99 0.33 1.98 0.66 3 1 C1.25 5.875 1.25 5.875 -1 7 C-1.625 5.1875 -1.625 5.1875 -2 3 C-1.34 2.01 -0.68 1.02 0 0 Z " fill="#F1897D" transform="translate(168,154)"/>
<path d="M0 0 C0.66 0 1.32 0 2 0 C1.67 0.99 1.34 1.98 1 3 C0.34 3 -0.32 3 -1 3 C-1.103125 3.639375 -1.20625 4.27875 -1.3125 4.9375 C-1.539375 5.618125 -1.76625 6.29875 -2 7 C-2.99 7.33 -3.98 7.66 -5 8 C-3.63055898 5.05043472 -2.12169591 2.47531189 0 0 Z " fill="#EC8F84" transform="translate(124,108)"/>
<path d="M0 0 C0.66 0.33 1.32 0.66 2 1 C0.25 3.0625 0.25 3.0625 -2 5 C-4.25 4.75 -4.25 4.75 -6 4 C-3.94766315 1.7522025 -2.99332739 0.9977758 0 0 Z " fill="#EE8D87" transform="translate(132,103)"/>
<path d="M0 0 C1.134375 0.020625 2.26875 0.04125 3.4375 0.0625 C3.4375 0.3925 3.4375 0.7225 3.4375 1.0625 C2.07625 1.4646875 2.07625 1.4646875 0.6875 1.875 C-2.27721963 2.95826294 -4.1794754 4.04609457 -6.5625 6.0625 C-4.25951087 0.07472826 -4.25951087 0.07472826 0 0 Z " fill="#CAD6DF" transform="translate(1027.5625,102.9375)"/>
<path d="M0 0 C0.66 0 1.32 0 2 0 C0.70700306 2.88437779 -0.65941363 4.87219421 -3 7 C-3.66 6.67 -4.32 6.34 -5 6 C-3.38405168 3.95880212 -1.7143618 1.95927063 0 0 Z " fill="#392B20" transform="translate(819,78)"/>
<path d="M0 0 C2.64 0.66 5.28 1.32 8 2 C8.33 3.32 8.66 4.64 9 6 C5.88802644 4.50164236 2.91164984 2.86022073 0 1 C0 0.67 0 0.34 0 0 Z " fill="#7767E3" transform="translate(72,46)"/>
</svg>
